<svg id="svg" version="1.1" width="400" height="400" viewBox="0 0 400 400" xmlns="http://www.w3.org/2000/svg" xmlns:xlink="http://www.w3.org/1999/xlink"><g id="svgg"><path id="path2" d="M311.955 57.787 C 312.250 57.824,312.775 57.824,313.121 57.788 C 313.467 57.752,313.225 57.722,312.583 57.721 C 311.942 57.721,311.659 57.750,311.955 57.787 M323.083 62.167 C 323.628 62.717,324.110 63.167,324.156 63.167 C 324.202 63.167,323.794 62.717,323.250 62.167 C 322.706 61.617,322.223 61.167,322.177 61.167 C 322.131 61.167,322.539 61.617,323.083 62.167 M99.375 85.955 C 99.719 85.991,100.281 85.991,100.625 85.955 C 100.969 85.919,100.688 85.889,100.000 85.889 C 99.313 85.889,99.031 85.919,99.375 85.955 M86.575 94.182 C 86.429 94.466,86.338 94.727,86.375 94.763 C 86.411 94.800,86.565 94.568,86.717 94.248 C 87.060 93.529,86.941 93.474,86.575 94.182 M85.050 100.833 C 85.050 101.337,85.081 101.544,85.119 101.292 C 85.158 101.040,85.158 100.627,85.119 100.375 C 85.081 100.123,85.050 100.329,85.050 100.833 M89.417 111.333 C 89.961 111.883,90.444 112.333,90.490 112.333 C 90.535 112.333,90.128 111.883,89.583 111.333 C 89.039 110.783,88.556 110.333,88.510 110.333 C 88.465 110.333,88.872 110.783,89.417 111.333 M110.494 111.292 L 109.583 112.250 110.542 111.339 C 111.432 110.493,111.576 110.333,111.453 110.333 C 111.427 110.333,110.995 110.765,110.494 111.292 M268.360 122.757 C 268.081 123.370,268.134 123.501,268.436 122.944 C 268.577 122.683,268.662 122.439,268.623 122.401 C 268.585 122.363,268.467 122.523,268.360 122.757 M217.250 236.667 C 217.108 236.942,217.029 237.167,217.075 237.167 C 217.121 237.167,217.274 236.942,217.417 236.667 C 217.559 236.392,217.638 236.167,217.592 236.167 C 217.546 236.167,217.392 236.392,217.250 236.667 M93.875 300.282 C 94.035 300.323,94.298 300.323,94.458 300.282 C 94.619 300.240,94.487 300.205,94.167 300.205 C 93.846 300.205,93.715 300.240,93.875 300.282 M96.542 300.282 C 96.702 300.323,96.965 300.323,97.125 300.282 C 97.285 300.240,97.154 300.205,96.833 300.205 C 96.513 300.205,96.381 300.240,96.542 300.282 M84.909 304.542 L 84.250 305.250 84.958 304.591 C 85.348 304.229,85.667 303.910,85.667 303.883 C 85.667 303.757,85.522 303.883,84.909 304.542 M105.917 304.500 C 106.275 304.867,106.605 305.167,106.651 305.167 C 106.697 305.167,106.441 304.867,106.083 304.500 C 105.725 304.133,105.395 303.833,105.349 303.833 C 105.303 303.833,105.559 304.133,105.917 304.500 M110.379 315.000 C 110.379 315.412,110.411 315.581,110.451 315.375 C 110.491 315.169,110.491 314.831,110.451 314.625 C 110.411 314.419,110.379 314.587,110.379 315.000 M80.542 315.083 C 80.544 315.450,80.578 315.580,80.618 315.373 C 80.658 315.166,80.656 314.866,80.615 314.706 C 80.573 314.547,80.540 314.717,80.542 315.083 M84.500 325.219 C 84.500 325.248,84.744 325.491,85.042 325.760 L 85.583 326.250 85.094 325.708 C 84.638 325.203,84.500 325.090,84.500 325.219 M105.906 325.708 L 105.417 326.250 105.958 325.760 C 106.256 325.491,106.500 325.248,106.500 325.219 C 106.500 325.090,106.362 325.203,105.906 325.708 M94.625 329.956 C 95.106 329.990,95.894 329.990,96.375 329.956 C 96.856 329.923,96.462 329.895,95.500 329.895 C 94.537 329.895,94.144 329.923,94.625 329.956 M193.995 356.292 L 192.917 357.417 194.042 356.338 C 194.660 355.745,195.167 355.239,195.167 355.213 C 195.167 355.090,194.997 355.247,193.995 356.292 M172.500 355.885 C 172.500 355.914,172.744 356.158,173.042 356.427 L 173.583 356.917 173.094 356.375 C 172.638 355.870,172.500 355.757,172.500 355.885 " stroke="none" fill="#a0a0a0" fill-rule="evenodd"></path><path id="path3" d="M89.406 90.375 L 88.917 90.917 89.458 90.427 C 89.756 90.158,90.000 89.914,90.000 89.885 C 90.000 89.757,89.862 89.870,89.406 90.375 M95.042 300.286 C 95.294 300.324,95.706 300.324,95.958 300.286 C 96.210 300.248,96.004 300.217,95.500 300.217 C 94.996 300.217,94.790 300.248,95.042 300.286 " stroke="none" fill="#7c7c7c" fill-rule="evenodd"></path><path id="path4" d="M311.292 57.951 C 311.498 57.991,311.835 57.991,312.042 57.951 C 312.248 57.911,312.079 57.879,311.667 57.879 C 311.254 57.879,311.085 57.911,311.292 57.951 M313.294 57.951 C 313.501 57.991,313.801 57.990,313.960 57.948 C 314.120 57.906,313.950 57.874,313.583 57.875 C 313.217 57.877,313.086 57.911,313.294 57.951 M322.917 62.167 C 323.461 62.717,323.944 63.167,323.990 63.167 C 324.035 63.167,323.628 62.717,323.083 62.167 C 322.539 61.617,322.056 61.167,322.010 61.167 C 321.965 61.167,322.372 61.617,322.917 62.167 M327.381 72.583 C 327.382 73.042,327.415 73.209,327.453 72.956 C 327.491 72.703,327.490 72.328,327.451 72.123 C 327.411 71.918,327.380 72.125,327.381 72.583 M98.627 86.118 C 98.834 86.158,99.134 86.156,99.294 86.115 C 99.453 86.073,99.283 86.040,98.917 86.042 C 98.550 86.044,98.420 86.078,98.627 86.118 M100.794 86.118 C 101.001 86.158,101.301 86.156,101.460 86.115 C 101.620 86.073,101.450 86.040,101.083 86.042 C 100.717 86.044,100.586 86.078,100.794 86.118 M85.227 100.833 C 85.227 101.704,85.255 102.060,85.289 101.625 C 85.324 101.190,85.324 100.477,85.289 100.042 C 85.255 99.606,85.227 99.962,85.227 100.833 M114.724 100.750 C 114.724 101.483,114.754 101.763,114.789 101.371 C 114.824 100.979,114.824 100.379,114.788 100.037 C 114.752 99.696,114.723 100.017,114.724 100.750 M89.500 111.250 C 90.091 111.846,90.611 112.333,90.657 112.333 C 90.703 112.333,90.257 111.846,89.667 111.250 C 89.076 110.654,88.555 110.167,88.510 110.167 C 88.464 110.167,88.909 110.654,89.500 111.250 M110.328 111.292 L 109.417 112.250 110.375 111.339 C 111.265 110.493,111.410 110.333,111.286 110.333 C 111.260 110.333,110.829 110.765,110.328 111.292 M99.458 115.621 C 99.756 115.658,100.244 115.658,100.542 115.621 C 100.840 115.584,100.596 115.553,100.000 115.553 C 99.404 115.553,99.160 115.584,99.458 115.621 M105.826 304.542 C 106.517 305.278,106.667 305.410,106.667 305.285 C 106.667 305.258,106.310 304.902,105.875 304.493 L 105.083 303.750 105.826 304.542 M84.909 304.708 L 84.250 305.417 84.958 304.758 C 85.617 304.145,85.743 304.000,85.617 304.000 C 85.590 304.000,85.271 304.319,84.909 304.708 M80.726 315.083 C 80.725 315.908,80.754 316.267,80.788 315.880 C 80.823 315.493,80.824 314.818,80.789 314.380 C 80.755 313.942,80.726 314.258,80.726 315.083 M110.226 315.083 C 110.225 315.908,110.254 316.267,110.288 315.880 C 110.323 315.493,110.324 314.818,110.289 314.380 C 110.255 313.942,110.226 314.258,110.226 315.083 M84.500 325.052 C 84.500 325.081,84.744 325.325,85.042 325.594 L 85.583 326.083 85.094 325.542 C 84.638 325.037,84.500 324.923,84.500 325.052 M105.906 325.542 L 105.417 326.083 105.958 325.594 C 106.256 325.325,106.500 325.081,106.500 325.052 C 106.500 324.923,106.362 325.037,105.906 325.542 M168.718 345.750 C 168.719 346.300,168.750 346.505,168.787 346.205 C 168.825 345.906,168.824 345.456,168.786 345.205 C 168.748 344.955,168.717 345.200,168.718 345.750 M193.829 356.292 L 192.750 357.417 193.875 356.338 C 194.920 355.336,195.076 355.167,194.954 355.167 C 194.928 355.167,194.422 355.673,193.829 356.292 M173.000 356.250 C 173.311 356.571,173.603 356.833,173.649 356.833 C 173.695 356.833,173.478 356.571,173.167 356.250 C 172.856 355.929,172.564 355.667,172.518 355.667 C 172.472 355.667,172.689 355.929,173.000 356.250 M183.125 360.618 C 183.331 360.657,183.669 360.657,183.875 360.618 C 184.081 360.578,183.912 360.545,183.500 360.545 C 183.088 360.545,182.919 360.578,183.125 360.618 " stroke="none" fill="#747474" fill-rule="evenodd"></path></g></svg>